<?xml version="1.0" encoding="UTF-8"?>
<svg id="Capa_2" data-name="Capa 2" xmlns="http://www.w3.org/2000/svg" viewBox="0 0 307.74 74.59">
  <defs>
    <style>
      .cls-1 {
        fill: #82be5b;
      }
    </style>
  </defs>
  <g id="Capa_1-2" data-name="Capa 1">
    <g>
      <g>
        <path class="cls-1" d="M37.29,74.59C16.73,74.59,0,57.86,0,37.29S16.73,0,37.29,0s37.29,16.73,37.29,37.29-16.73,37.29-37.29,37.29ZM37.29,5.42c-17.57,0-31.87,14.3-31.87,31.87s14.3,31.87,31.87,31.87,31.87-14.3,31.87-31.87S54.87,5.42,37.29,5.42Z"/>
        <path class="cls-1" d="M37.29,66.49c-13.2,0-23.94-10.74-23.94-23.94,0-9.69,7.21-17.72,12.08-20.09,1.35-.66,2.97-.09,3.62,1.25.66,1.35.1,2.97-1.25,3.62-3.05,1.48-9.03,7.66-9.03,15.21,0,10.21,8.3,18.51,18.51,18.51s18.51-8.3,18.51-18.51c0-6.79-3.51-12.75-8.95-15.17-1.37-.61-1.98-2.21-1.37-3.58.61-1.37,2.21-1.98,3.58-1.37,7.39,3.3,12.16,11.2,12.16,20.13,0,13.2-10.74,23.94-23.93,23.94Z"/>
      </g>
      <g>
        <path class="cls-1" d="M87.55,40.56h16.16v-6.35h-16.16v-8.51h17.79v-7.05h-28.19v6.2c1.26,3.92,1.95,8.1,1.95,12.44s-.69,8.52-1.95,12.45v6.87h28.73v-7.05h-18.33v-9Z"/>
        <polygon class="cls-1" points="130.33 45.55 120.41 18.65 110.16 18.65 110.16 56.61 118.29 56.61 118.29 32.69 118.57 32.69 127.3 56.61 133.37 56.61 142.16 32.69 142.43 32.69 142.43 56.61 150.56 56.61 150.56 18.65 140.31 18.65 130.33 45.55"/>
        <path class="cls-1" d="M173.5,18.16c-10.95,0-18.11,7.81-18.11,19.47s7.16,19.52,18.11,19.52,18.11-7.92,18.11-19.52-7.16-19.47-18.11-19.47ZM173.5,50.16c-6.24,0-9.76-4.99-9.76-12.53s3.53-12.47,9.76-12.47,9.76,4.88,9.76,12.47-3.53,12.53-9.76,12.53Z"/>
        <rect class="cls-1" x="224.5" y="18.65" width="8.13" height="37.96"/>
        <polygon class="cls-1" points="266.04 18.65 255.85 48.31 255.36 48.31 245.16 18.65 236.65 18.65 250.37 56.61 260.84 56.61 274.56 18.65 266.04 18.65"/>
        <path class="cls-1" d="M294.02,18.65h-10.47l-13.72,37.96h8.51l2.44-7.1h16l2.44,7.1h8.51l-13.72-37.96ZM282.85,43.49l5.69-16.54h.49l5.69,16.54h-11.88Z"/>
        <path class="cls-1" d="M192.26,25.86h9.09v30.75h8.13v-30.75h11.01v-7.21h-34.21c2.51,1.84,4.53,4.28,5.98,7.21Z"/>
      </g>
    </g>
  </g>
</svg>